#!OML:ASF H:\Terrain\Patient Classification 1\Walking\liu\liu.ASF
:FULLY-SPECIFIED
:DEGREES
328
root 0.0243 16.277 61.0542 8.69643 1.0498 3.34054
lowerback -4.85717 -4.14115 -5.42398
upperback -0.319588 -5.28363 2.09804
thorax 3.07912 -2.72645 4.78992
lowerneck -23.8189 -3.45949 -11.1738
upperneck 23.1742 -3.89484 11.1502
head 12.0261 -1.29653 5.4524
rclavicle 5.63058e-014 -1.11319e-014
rhumerus -48.1883 7.63201 -83.2242
rradius 28.9689
rwrist -14.6463
rhand -29.3767 -21.7339
rfingers 7.12502
rthumb -2.71547 -51.6964
lclavicle 5.63058e-014 -1.11319e-014
lhumerus -12.2531 -19.7325 83.4888
lradius 35.5649
lwrist 9.42212
lhand -14.9487 -27.1316
lfingers 7.12502
lthumb 11.2142 2.5487
rfemur -41.8862 9.6276 11.6531
rtibia 27.2073
rfoot -20.9831 -8.13148
rtoes -21.5254
lfemur 8.78957 1.94792 -28.3085
ltibia 1.27222e-014
lfoot -11.607 -1.68449
ltoes 1.01174
329
root 0.0244 16.2606 61.08 8.65746 1.0498 3.87929
lowerback -4.86602 -4.20668 -5.93909
upperback -0.294575 -5.3374 1.95055
thorax 3.15027 -2.7617 4.9168
lowerneck -23.8065 -3.488 -11.3207
upperneck 23.1534 -3.91206 11.2634
head 12.0242 -1.30338 5.51874
rclavicle -2.33572e-014 -5.56597e-015
rhumerus -48.4462 7.24441 -82.979
rradius 28.6596
rwrist -14.3223
rhand -28.8923 -21.8386
rfingers 7.12502
rthumb -2.24772 -51.8065
lclavicle -2.33572e-014 -5.56597e-015
lhumerus -11.7666 -20.1589 83.3466
lradius 36.1272
lwrist 9.71952
lhand -15.2668 -26.8764
lfingers 7.12502
lthumb 10.9074 2.82031
rfemur -42.533 11.7697 9.54648
rtibia 26.5398
rfoot -22.2542 -9.22149
rtoes -21.244
lfemur 9.6649 2.09829 -28.718
ltibia 2.8625e-014
lfoot -11.9117 -2.24945
ltoes 0.842417
330
root 0.0244 16.2528 61.1057 8.65805 1.0498 4.12768
lowerback -4.68431 -4.31834 -6.24124
upperback -0.411588 -5.48291 1.94632
thorax 2.97412 -2.83051 5.08498
lowerneck -23.7619 -3.47622 -11.4572
upperneck 23.2242 -3.89635 11.4093
head 12.0474 -1.29207 5.60611
rclavicle 5.4467e-014 -1.59028e-014
rhumerus -48.7633 6.91986 -82.5997
rradius 28.2741
rwrist -14.0323
rhand -28.5281 -20.1761
rfingers 7.12502
rthumb -1.89595 -50.1475
lclavicle 5.4467e-014 -1.59028e-014
lhumerus -11.5666 -20.1678 83.3088
lradius 36.7179
lwrist 9.65923
lhand -15.475 -26.8502
lfingers 7.12502
lthumb 10.7066 2.85696
rfemur -43.2583 13.8559 7.77657
rtibia 26.0635
rfoot -24.0095 -10.584
rtoes -18.3305
lfemur 10.3789 2.20042 -28.7572
ltibia -6.36111e-015
lfoot -11.9621 -2.73558
ltoes 0.0827126
331
root 0.0245 16.2344 61.1315 8.79731 1.0498 4.49061
lowerback -4.5691 -4.42787 -6.61979
upperback -0.576986 -5.6189 1.9062
thorax 2.78851 -2.89259 5.25706
lowerneck -23.6949 -3.44961 -11.5859
upperneck 23.2432 -3.86706 11.5757
head 12.0444 -1.27151 5.69999
rclavicle -4.74101e-014 5.56597e-015
rhumerus -48.9091 6.23968 -81.9268
rradius 27.5678
rwrist -13.4867
rhand -28.5616 -17.9538
rfingers 7.12502
rthumb -1.92834 -47.9249
lclavicle -4.74101e-014 5.56597e-015
lhumerus -11.3192 -20.2585 83.2396
lradius 37.2515
lwrist 9.9052
lhand -15.4356 -26.981
lfingers 7.12502
lthumb 10.7446 2.72418
rfemur -44.017 14.8945 6.49832
rtibia 25.7104
rfoot -25.1424 -11.3672
rtoes -17.8032
lfemur 10.9409 2.31945 -28.9338
ltibia 2.8625e-014
lfoot -11.7947 -3.04971
ltoes -0.378314
332
root 0.0245 16.1993 61.1572 8.9403 1.0498 4.79079
lowerback -4.63773 -4.47181 -6.87826
upperback -0.67797 -5.65943 1.82266
thorax 2.74392 -2.9105 5.30928
lowerneck -23.3336 -3.35618 -11.5592
upperneck 22.9012 -3.75997 11.5823
head 11.8262 -1.2263 5.69499
rclavicle -1.49089e-014 0
rhumerus -49.0194 5.30827 -81.1842
rradius 26.9057
rwrist -12.6509
rhand -28.2553 -17.6327
rfingers 7.12502
rthumb -1.6325 -47.6062
lclavicle -1.49089e-014 0
lhumerus -11.043 -20.5102 83.1293
lradius 37.7193
lwrist 10.1747
lhand -15.605 -27.2893
lfingers 7.12502
lthumb 10.5812 2.42431
rfemur -44.5355 14.7174 6.18361
rtibia 25.4642
rfoot -25.3494 -11.0859
rtoes -19.9544
lfemur 11.5328 2.57835 -29.0447
ltibia 1.27222e-014
lfoot -11.5924 -3.5929
ltoes 0.420214
